<svg width="699" height="101" viewBox="0 0 699 101" fill="none" xmlns="http://www.w3.org/2000/svg">
<path d="M0 16V85H69V16H0ZM48.1281 64.6192C46.9004 66.3381 45.1815 67.5658 42.9715 68.548C40.7616 69.5303 38.3061 70.0214 35.1139 70.0214H19.6441V31.2242H34.3772C38.7972 31.2242 41.9893 32.2064 44.4448 33.6797C46.9004 35.3986 47.8826 37.8541 47.8826 41.0463C47.8826 43.0107 47.3915 44.484 46.6548 45.9573C45.9182 47.1851 44.4448 48.4128 42.9715 49.1495C45.1815 49.8861 46.9004 51.1139 48.1281 52.8327C49.3559 54.5516 49.847 56.516 49.847 58.726C49.847 61.1815 49.3559 63.1459 48.1281 64.6192ZM38.3061 45.7117C39.2883 44.7295 39.7794 43.5018 39.7794 42.0285C39.7794 39.0819 37.5694 37.363 33.395 37.363H27.5018V46.9395H33.395C35.605 47.1851 37.0783 46.694 38.3061 45.7117ZM34.6228 53.0783H27.7473V63.637H34.3772C36.8327 63.637 38.5516 63.1459 39.7794 62.4093C41.0071 61.427 41.7438 60.1993 41.7438 58.4804C41.7438 55.0427 39.2883 53.0783 34.6228 53.0783Z" fill="white"/>
<path d="M86.1923 16V85H155.192V16H86.1923ZM134.32 64.6192C133.093 66.3381 131.374 67.5658 129.409 68.548C127.199 69.5303 124.498 69.7758 121.552 69.7758H106.082V31.2242H120.324C124.744 31.2242 127.936 32.2064 130.392 33.6797C132.847 35.3986 133.829 37.8541 133.829 41.0463C133.829 43.0107 133.338 44.484 132.602 45.9573C131.865 47.4306 130.392 48.4128 128.918 49.1495C131.128 49.8861 132.847 51.1139 134.075 52.8327C135.303 54.5516 135.794 56.516 135.794 58.726C136.039 61.1815 135.303 63.1459 134.32 64.6192ZM124.253 45.7117C125.235 44.7295 125.726 43.5018 125.726 42.0285C125.726 39.0819 123.516 37.363 119.587 37.363H113.694V46.9395H119.587C121.797 47.1851 123.271 46.694 124.253 45.7117ZM120.57 53.0783H113.694V63.637H120.57C123.025 63.637 124.744 63.1459 125.972 62.4093C127.199 61.427 127.936 60.1993 127.936 58.4804C127.936 55.0427 125.481 53.0783 120.57 53.0783Z" fill="white"/>
<path d="M172.385 85H241.385V16H172.385V85ZM221.74 67.5658C220.267 68.548 218.303 69.0391 216.093 69.7758C213.883 70.2669 211.673 70.5125 209.463 70.5125C206.271 70.5125 203.57 70.0214 201.114 69.2847C198.659 68.548 196.449 67.0747 194.73 65.3559C193.011 63.637 191.783 61.6726 190.801 59.2171C189.819 56.7616 189.328 54.0605 189.328 50.8683C189.328 47.9217 189.819 45.2206 190.801 42.7651C191.783 40.3096 193.011 38.3452 194.975 36.6263C196.694 34.9075 198.904 33.4342 201.36 32.6975C203.815 31.7153 206.762 31.2242 209.708 31.2242C211.918 31.2242 213.883 31.4698 215.847 31.9609C217.812 32.452 219.53 32.9431 221.249 33.9253V41.5374C219.776 40.5552 218.057 39.8185 216.338 39.3274C214.619 38.8363 212.655 38.5907 210.936 38.5907C208.235 38.5907 206.025 39.0819 204.061 40.0641C202.096 41.0463 200.623 42.5196 199.641 44.484C198.659 46.4484 198.168 48.6584 198.168 51.3594C198.168 54.0605 198.659 56.2705 199.641 58.2349C200.623 60.1993 202.096 61.6726 203.815 62.6548C205.78 63.637 207.99 64.1281 210.445 64.1281C214.374 64.1281 218.057 63.1459 221.495 60.9359L221.74 67.5658Z" fill="white"/>
<path d="M304.417 77C300.673 71 296.881 65 293.041 59C289.201 52.952 285.409 47.096 281.665 41.432V77H271.009V25.52H282.241C286.129 31.328 289.945 37.16 293.689 43.016C297.481 48.824 301.249 54.728 304.993 60.728V25.52H315.649V77H304.417ZM325.186 25.52H360.61V34.736H336.274V45.896H357.874V55.112H336.274V67.784H361.978V77H325.186V25.52ZM410.01 77C408.378 71.192 406.77 65.384 405.186 59.576C403.65 53.768 402.138 47.96 400.65 42.152C399.21 47.96 397.722 53.768 396.186 59.576C394.65 65.384 393.066 71.192 391.434 77H379.698C377.25 68.6 374.898 60.104 372.642 51.512C370.386 42.92 368.25 34.256 366.234 25.52H378.33C379.53 32.192 380.802 38.864 382.146 45.536C383.49 52.208 384.906 58.76 386.394 65.192C389.61 52.664 392.658 40.16 395.538 27.68H406.338C407.778 33.824 409.242 39.968 410.73 46.112C412.266 52.208 413.826 58.304 415.41 64.4C416.85 58.064 418.242 51.632 419.586 45.104C420.93 38.576 422.178 32.048 423.33 25.52H435.21C433.194 34.256 431.058 42.92 428.802 51.512C426.546 60.104 424.194 68.6 421.746 77H410.01ZM454.235 78.08C451.403 78.08 448.595 77.768 445.811 77.144C443.075 76.52 440.435 75.536 437.891 74.192V64.256C443.027 67.376 448.475 68.936 454.235 68.936C457.499 68.936 459.971 68.384 461.651 67.28C463.379 66.176 464.243 64.64 464.243 62.672C464.243 61.184 463.811 60.032 462.947 59.216C462.131 58.352 461.027 57.68 459.635 57.2C458.243 56.672 456.683 56.192 454.955 55.76C452.123 55.088 449.627 54.32 447.467 53.456C445.307 52.592 443.483 51.584 441.995 50.432C440.507 49.232 439.379 47.816 438.611 46.184C437.843 44.504 437.459 42.512 437.459 40.208C437.459 36.944 438.275 34.136 439.907 31.784C441.587 29.432 443.939 27.632 446.963 26.384C449.987 25.088 453.587 24.44 457.763 24.44C460.499 24.44 463.187 24.752 465.827 25.376C468.467 26 470.843 26.84 472.955 27.896V37.688C470.843 36.392 468.443 35.384 465.755 34.664C463.115 33.944 460.451 33.584 457.763 33.584C454.835 33.584 452.555 34.088 450.923 35.096C449.339 36.104 448.547 37.544 448.547 39.416C448.547 40.76 448.931 41.84 449.699 42.656C450.467 43.424 451.547 44.072 452.939 44.6C454.379 45.08 456.059 45.56 457.979 46.04C460.427 46.664 462.707 47.36 464.819 48.128C466.931 48.848 468.779 49.784 470.363 50.936C471.995 52.088 473.243 53.552 474.107 55.328C475.019 57.104 475.475 59.288 475.475 61.88C475.475 65.288 474.635 68.216 472.955 70.664C471.275 73.064 468.851 74.912 465.683 76.208C462.515 77.456 458.699 78.08 454.235 78.08ZM496.473 25.52H507.561V67.352H531.969V77H496.473V25.52ZM574.878 77C573.63 73.208 572.382 69.488 571.134 65.84H550.254C549.006 69.536 547.758 73.256 546.51 77H534.63C537.894 67.976 541.206 59.168 544.566 50.576C547.974 41.984 551.406 33.632 554.862 25.52H566.814C570.366 34.064 573.822 42.656 577.182 51.296C580.59 59.888 583.878 68.456 587.046 77H574.878ZM553.422 56.624H567.894C566.742 53.264 565.542 49.928 564.294 46.616C563.094 43.256 561.894 39.968 560.694 36.752C558.198 43.328 555.774 49.952 553.422 56.624ZM632.982 62.168C632.982 65.24 632.166 67.88 630.534 70.088C628.95 72.296 626.67 74 623.694 75.2C620.718 76.4 617.142 77 612.966 77H591.87V25.52H611.742C617.598 25.52 622.134 26.672 625.35 28.976C628.566 31.232 630.174 34.496 630.174 38.768C630.174 41.216 629.598 43.352 628.446 45.176C627.294 46.952 625.59 48.368 623.334 49.424C626.454 50.432 628.83 52.04 630.462 54.248C632.142 56.408 632.982 59.048 632.982 62.168ZM602.598 46.688H610.734C613.518 46.688 615.63 46.112 617.07 44.96C618.558 43.76 619.302 42.104 619.302 39.992C619.302 35.912 616.446 33.872 610.734 33.872H602.598V46.688ZM602.598 68.648H611.958C615.174 68.648 617.646 68.072 619.374 66.92C621.102 65.72 621.966 64.016 621.966 61.808C621.966 57.104 618.678 54.752 612.102 54.752H602.598V68.648ZM653.684 78.08C650.852 78.08 648.044 77.768 645.26 77.144C642.524 76.52 639.884 75.536 637.34 74.192V64.256C642.476 67.376 647.924 68.936 653.684 68.936C656.948 68.936 659.42 68.384 661.1 67.28C662.828 66.176 663.692 64.64 663.692 62.672C663.692 61.184 663.26 60.032 662.396 59.216C661.58 58.352 660.476 57.68 659.084 57.2C657.692 56.672 656.132 56.192 654.404 55.76C651.572 55.088 649.076 54.32 646.916 53.456C644.756 52.592 642.932 51.584 641.444 50.432C639.956 49.232 638.828 47.816 638.06 46.184C637.292 44.504 636.908 42.512 636.908 40.208C636.908 36.944 637.724 34.136 639.356 31.784C641.036 29.432 643.388 27.632 646.412 26.384C649.436 25.088 653.036 24.44 657.212 24.44C659.948 24.44 662.636 24.752 665.276 25.376C667.916 26 670.292 26.84 672.404 27.896V37.688C670.292 36.392 667.892 35.384 665.204 34.664C662.564 33.944 659.9 33.584 657.212 33.584C654.284 33.584 652.004 34.088 650.372 35.096C648.788 36.104 647.996 37.544 647.996 39.416C647.996 40.76 648.38 41.84 649.148 42.656C649.916 43.424 650.996 44.072 652.388 44.6C653.828 45.08 655.508 45.56 657.428 46.04C659.876 46.664 662.156 47.36 664.268 48.128C666.38 48.848 668.228 49.784 669.812 50.936C671.444 52.088 672.692 53.552 673.556 55.328C674.468 57.104 674.924 59.288 674.924 61.88C674.924 65.288 674.084 68.216 672.404 70.664C670.724 73.064 668.3 74.912 665.132 76.208C661.964 77.456 658.148 78.08 653.684 78.08Z" fill="white"/>
</svg>
